<svg xmlns="http://www.w3.org/2000/svg" viewBox="0 0 633.44 152.99"><title>Mesa de trabajo 12</title><g id="Capa_15" data-name="Capa 15"><path d="M111.43,110.44a11.81,11.81,0,0,1-4.82-1,7.57,7.57,0,0,1-3.36-2.83A8.47,8.47,0,0,1,102,102,8.14,8.14,0,0,1,102.9,98a6.92,6.92,0,0,1,2.37-2.55A11.91,11.91,0,0,1,108.68,94a24.31,24.31,0,0,1,4-.71c1.63-.17,3-.33,4-.47a5.43,5.43,0,0,0,2.2-.68,1.56,1.56,0,0,0,.7-1.38v-.12a3.87,3.87,0,0,0-.51-2,3.27,3.27,0,0,0-1.5-1.28,6,6,0,0,0-2.42-.44,6.88,6.88,0,0,0-2.55.44,5,5,0,0,0-1.77,1.18,4.83,4.83,0,0,0-1,1.64L102.84,89a9.75,9.75,0,0,1,2.42-4.19,11.09,11.09,0,0,1,4.21-2.63,16.69,16.69,0,0,1,5.67-.91,17.61,17.61,0,0,1,4.42.55,12.17,12.17,0,0,1,3.85,1.68,8.21,8.21,0,0,1,2.71,3,9.15,9.15,0,0,1,1,4.39v19h-7.17V106h-.25a8.09,8.09,0,0,1-1.82,2.31,8.64,8.64,0,0,1-2.74,1.58A11.05,11.05,0,0,1,111.43,110.44Zm2.14-5.33a6.71,6.71,0,0,0,3.15-.71,5.37,5.37,0,0,0,2.11-1.92,5,5,0,0,0,.75-2.7V96.72a2.91,2.91,0,0,1-1,.45,12.45,12.45,0,0,1-1.51.36l-1.64.28L114,98a9.61,9.61,0,0,0-2.45.65,4.21,4.21,0,0,0-1.65,1.2,3.08,3.08,0,0,0-.58,1.91,3,3,0,0,0,.56,1.83,3.41,3.41,0,0,0,1.51,1.13A6.08,6.08,0,0,0,113.57,105.11Z"/><path d="M145.12,81.64v5.78H128.37V81.64Zm-12.86-6.72h7.58v26.7a2.87,2.87,0,0,0,.59,2,2.61,2.61,0,0,0,2,.65,8.49,8.49,0,0,0,1.21-.12,11,11,0,0,0,1.19-.21l1.08,5.68a14.23,14.23,0,0,1-2.51.53,20.12,20.12,0,0,1-2.39.16c-2.83,0-5-.7-6.49-2.08a7.66,7.66,0,0,1-2.25-5.93Z"/><path d="M245.43,47.23A8.2,8.2,0,0,1,239.64,45a7.38,7.38,0,0,1,0-10.89,8.61,8.61,0,0,1,11.61,0,7.34,7.34,0,0,1,0,10.89A8.27,8.27,0,0,1,245.43,47.23Zm-7.49,63.13V54.52h15v55.84Z"/><path d="M289.83,111.25a27.89,27.89,0,0,1-10.85-2,19.11,19.11,0,0,1-7.71-5.77,19.5,19.5,0,0,1-3.86-9.15l12.66-2.47a10.78,10.78,0,0,0,3.5,6,10.3,10.3,0,0,0,6.67,2,10.07,10.07,0,0,0,6.15-1.68A5.07,5.07,0,0,0,298.63,94,4.73,4.73,0,0,0,297,90.28a11.17,11.17,0,0,0-4.92-2.22L283.34,86q-7.35-1.69-11-5.79a15.33,15.33,0,0,1-3.63-10.54,16.72,16.72,0,0,1,2.68-9.56A17.24,17.24,0,0,1,278.85,54a26.94,26.94,0,0,1,11.21-2.17,26.41,26.41,0,0,1,10.39,1.88A17.83,17.83,0,0,1,307.57,59a18.5,18.5,0,0,1,3.63,8.14l-12.07,2.42a9.28,9.28,0,0,0-3-4.82,8.83,8.83,0,0,0-5.92-1.88,9.57,9.57,0,0,0-5.63,1.6,5.21,5.21,0,0,0-.79,7.94,10.42,10.42,0,0,0,5.06,2.32L298,76.78q7.35,1.69,10.93,5.54a14.1,14.1,0,0,1,3.59,10,17.19,17.19,0,0,1-2.9,9.92,19.28,19.28,0,0,1-8,6.62A27.71,27.71,0,0,1,289.83,111.25Z"/><path d="M326,110.73V52.56h14.35V62.71h.6A15.09,15.09,0,0,1,346,54.54a13.14,13.14,0,0,1,8.24-2.76c.76,0,1.58,0,2.48.13a15.71,15.71,0,0,1,2.32.39v14a12.39,12.39,0,0,0-2.87-.58,34.59,34.59,0,0,0-3.56-.2A12.19,12.19,0,0,0,346.55,67a10.73,10.73,0,0,0-4.23,4.27,12.91,12.91,0,0,0-1.51,6.37v33.09Z"/><path d="M389.23,111a16.41,16.41,0,0,1-9.29-2.64,17,17,0,0,1-6.16-7.55A28.93,28.93,0,0,1,371.61,89V52h13.73V86.3q0,5.42,2.47,8.49a8.2,8.2,0,0,0,6.77,3.08,9.35,9.35,0,0,0,5.17-1.44,9.48,9.48,0,0,0,3.5-4.17,15.65,15.65,0,0,0,1.26-6.59V52h13.77v58.26h-13l-.19-14.54h.78q-2,7.35-6.15,11.31A14.58,14.58,0,0,1,389.23,111Z"/><path d="M432.47,130.76V52.89h14.34v9.53h.67a23.51,23.51,0,0,1,2.9-4.61,15.1,15.1,0,0,1,4.93-4A16.3,16.3,0,0,1,463,52.18a19.88,19.88,0,0,1,11,3.24,22.41,22.41,0,0,1,8,9.74q3,6.48,3,16.17a39,39,0,0,1-2.91,15.94,22.79,22.79,0,0,1-7.92,9.89,19.73,19.73,0,0,1-11.28,3.37,16.32,16.32,0,0,1-7.48-1.57,15.7,15.7,0,0,1-5-3.88,20.49,20.49,0,0,1-2.95-4.59h-.43v30.27Zm25.95-32.45a9.62,9.62,0,0,0,6.39-2.18,13.36,13.36,0,0,0,3.94-6,26.9,26.9,0,0,0,1.33-8.82,26.42,26.42,0,0,0-1.33-8.77,13.47,13.47,0,0,0-3.91-6,9.57,9.57,0,0,0-6.42-2.18,9.89,9.89,0,0,0-6.37,2.1,12.84,12.84,0,0,0-4,5.88,26.37,26.37,0,0,0-1.36,9,26.32,26.32,0,0,0,1.38,8.94,13.28,13.28,0,0,0,4,6A9.72,9.72,0,0,0,458.42,98.31Z"/><path d="M529.86,54.31V65.75H496.75V54.31ZM504.45,41h15V93.82a5.65,5.65,0,0,0,1.17,3.92A5.13,5.13,0,0,0,524.52,99a17.8,17.8,0,0,0,2.4-.22,23.73,23.73,0,0,0,2.35-.43l2.14,11.24a29.56,29.56,0,0,1-5,1.05,39.11,39.11,0,0,1-4.72.3q-8.38,0-12.83-4.1t-4.44-11.73Z"/><polygon points="222.85 36.8 200.78 64.69 201.27 63.94 222.85 36.8"/><path d="M237.94,17.74l-15.06,19,0,0L201.27,63.94l-.56.7a11,11,0,0,0-6.24-1.77,10.78,10.78,0,0,0-7,2.26,13.64,13.64,0,0,0-4.23,6.21,26.81,26.81,0,0,0-1.42,9.11,30.15,30.15,0,0,0,.56,5.87l-11.53,14.49a33.35,33.35,0,0,1-2.1-3.74q-3.17-6.78-3.15-16.56,0-10.08,3.26-16.8a23.67,23.67,0,0,1,8.68-10.12,22.33,22.33,0,0,1,12-3.37c3.34,0,8.5.09,10.75,1.13,1.64.76,5.27,2.23,6.64,3.88l.19-25h15.8v1.08l10.43-13.6Z"/><path d="M222.85,42.13l-.26,67.7H207.06v-9.42h-.8a19.18,19.18,0,0,1-3.13,4.76,16.84,16.84,0,0,1-5.4,4,18.2,18.2,0,0,1-8.16,1.64,22.13,22.13,0,0,1-12.19-3.5,17.89,17.89,0,0,1-1.75-1.29L160,125.77l-4.36-.15L180.54,94h.07l2.92-3.69a13.62,13.62,0,0,0,4,5.6,10.63,10.63,0,0,0,6.92,2.27,10.86,10.86,0,0,0,6.85-2.21,13.68,13.68,0,0,0,4.32-6.19,27,27,0,0,0,1.46-9.29,26.94,26.94,0,0,0-1.44-9.29,14.44,14.44,0,0,0-2.42-4.26Z"/></g></svg>